<?xml version="1.0" encoding="UTF-8"?>
<svg id="Art" xmlns="http://www.w3.org/2000/svg" viewBox="0 0 800 800">
  <defs>
    <style>
      .cls-1 {
        fill: #0052f2;
      }
    </style>
  </defs>
  <path id="logo_amplitude_mark-circle" class="cls-1" d="M400,0C179.11627,0,0,179.11621,0,400s179.11627,400,400,400,400-179.11694,400-400S620.88379,0,400,0ZM674.30933,412.20886h-190.08447c13.61145,54.58142,38.56927,185.06018,72.89178,185.06018,25.97406,0,38.04761-40.62988,61.52643-106.34509,3.84601-10.76489,8.99756-25.72791,14.91132-41.77185,1.36511-3.70325,4.85303-6.31702,8.7998-6.28528,6.16193.04944,10.5578,6.04749,8.69067,11.93494-3.42151,10.78894-6.76276,23.12256-9.91211,37.24634-21.48242,96.34106-46.84576,158.87549-97.99213,158.87549-57.72101,0-91.76971-149.10742-116.30505-238.71472h-174.13635s-18.5556,58.16235-34.46942,110.92065c-2.31335,7.66956-9.37433,12.9165-17.38513,12.9165h-.00006c-11.13251,0-19.65839-9.92273-17.94989-20.92322,4.80029-30.90747,11.0755-63.85547,19.36273-103.07458h-70.15942c-15.2735,0-27.65509-12.38159-27.65509-27.65515h0c0-15.42773,12.62317-27.87231,28.04926-27.65234l82.06635,1.16968c29.29401-119.74182,72.90405-235.66113,132.43781-235.66113,56.93982,0,103.06055,154.07471,124.74683,238.7749,71.55847,1.62134,147.85266,4.30688,204.25861,8.7561,11.04541.87109,19.55536,10.10107,19.55536,21.18066v.00012c0,11.73474-9.513,21.2478-21.2478,21.2478ZM344.9079,175.58252c-18.52173,0-51.9552,74.73584-79.61096,182.97217,6.38806.00342,68.79803.07031,147.36523,1.33228-23.15546-85.44873-51.02808-184.30444-67.75427-184.30444Z"/>
</svg>