<?xml version="1.0" encoding="UTF-8"?> <svg xmlns="http://www.w3.org/2000/svg" width="86" height="30" viewBox="0 0 86 30" fill="none"><path d="M69.9447 29.7323V6.72995H62.3839V29.7296H55.0256V6.72995H47.8482L46.7681 0.224243H85.52L84.4398 6.72995H77.3003V29.7296H69.942L69.9447 29.7323Z" fill="#302A23"></path><path d="M23.317 20.7221C23.317 26.1849 18.6752 29.9998 12.0271 29.9998V29.9889C5.07115 29.9889 0.432047 26.3092 0 20.5546L7.15038 19.174L7.19898 19.7792C7.415 22.3512 9.2296 23.8858 12.0622 23.8858C14.5735 23.8858 15.956 22.9186 15.956 21.1598C15.956 19.6117 15.0406 18.8876 9.88307 17.8988C5.30067 16.9937 0.612967 15.2538 0.612967 9.19391C0.612967 3.77969 5.07115 0 11.46 0C17.8489 0 22.5447 3.66351 22.7473 9.34791L15.6266 10.1287L15.5618 9.60187C15.281 7.34594 13.8606 6.15179 11.46 6.15179C10.4123 6.15179 7.97127 6.39764 7.97127 8.67788C7.97127 10.2827 9.09729 10.8609 14.001 11.7767C18.8372 12.6764 21.7536 14.6216 22.8337 17.6908C23.0686 18.3527 23.2171 19.0659 23.2819 19.8332V19.8386C23.3062 20.125 23.317 20.4195 23.317 20.7221Z" fill="#302A23"></path><path d="M49.0359 7.07971C48.9818 6.966 48.925 6.855 48.8681 6.744C48.4866 6.01303 48.0428 5.33078 47.5341 4.7081C47.407 4.54295 47.269 4.38322 47.1283 4.2289C44.6496 1.47285 41.0156 0.0136108 36.6131 0.0136108C30.2678 0.0136108 25.1942 3.75242 23.3569 9.77349L23.3488 9.80868C23.2866 10.0226 23.2189 10.2473 23.1621 10.472C22.7995 11.9041 22.6128 13.4311 22.6128 15.0094C22.6128 15.383 22.6236 15.7161 22.6453 16.0382C22.6723 16.6122 22.7237 17.1753 22.8049 17.7276C22.9077 18.4667 23.0593 19.1841 23.2541 19.8745V19.8799C23.4219 20.4782 23.6221 21.0549 23.8575 21.6126L23.8737 21.6559C26.0899 26.9568 30.9334 29.9971 37.1841 29.9999H37.1895C42.9693 29.9999 47.8778 26.7105 49.7882 21.7886C49.8612 21.6018 49.9316 21.4095 49.9938 21.2173L43.3535 20.0315H43.3481C42.4092 22.1703 39.8873 23.5402 36.8675 23.5402C33.0927 23.5402 30.4788 21.2931 29.8781 17.5218L29.8375 17.2673H50.4024L50.5025 16.0599C50.5593 15.3993 50.6135 14.468 50.6135 13.978C50.5431 11.3843 50.0154 9.06417 49.0359 7.07971ZM29.6671 11.4033L30.0134 10.5072C31.0363 7.85129 33.707 6.06988 36.6645 6.06988C40.0767 6.06988 42.5499 7.69968 43.4455 10.5451L43.7188 11.4033H29.6671Z" fill="#302A23"></path></svg> 