<svg xmlns="http://www.w3.org/2000/svg" viewBox="0 0 85.6 96.6"><style>.st0{fill:#4C4C4C;}.st1{fill:#808080;}</style><g id="Logo"><path class="st0" d="M85.6,67.6V22.5L46.5,0v17.3l15.3,8.8c0.6,0.3,0.6,1.2,0,1.5L43.6,38.1c-0.5,0.3-1.2,0.3-1.7,0L23.7,27.6c-0.6-0.3-0.6-1.2,0-1.5L39,17.3V0L0,22.5v45.1v-0.2v0.2L15,59V41.3c0-0.6,0.7-1.1,1.3-0.7l18.2,10.5c0.5,0.3,0.9,0.9,0.9,1.5v21c0,0.6-0.7,1.1-1.3,0.7l-15.3-8.8l-15,8.6l39,22.5l39-22.5l-15-8.6l-15.3,8.8c-0.5,0.3-1.3-0.1-1.3-0.7v-21c0-0.6,0.3-1.2,0.9-1.5l18.2-10.5c0.5-0.3,1.3,0.1,1.3,0.7V59L85.6,67.6z"/><path d="M42.8,96.6l39-22.5l-15-8.6l-15.3,8.8c-0.5,0.3-1.3-0.1-1.3-0.7v-21c0-0.6,0.3-1.2,0.9-1.5l18.2-10.5c0.5-0.3,1.3,0.1,1.3,0.7V59l15,8.6V22.5L42.8,47.2V96.6z"/><path class="st1" d="M46.5,0v17.3l15.3,8.8c0.6,0.3,0.6,1.2,0,1.5L43.6,38.1c-0.5,0.3-1.2,0.3-1.7,0L23.7,27.6c-0.6-0.3-0.6-1.2,0-1.5L39,17.3V0L0,22.5l42.8,24.7l42.8-24.7L46.5,0z"/><path class="st0" d="M34,74.3l-15.3-8.8l-15,8.6l39,22.5V47.2L0,22.5v45.1v-0.2v0.2L15,59V41.3c0-0.6,0.7-1.1,1.3-0.7l18.2,10.5c0.5,0.3,0.9,0.9,0.9,1.5v21C35.3,74.2,34.6,74.6,34,74.3z"/></g></svg>
